<?xml version="1.0" encoding="UTF-8" standalone="no"?>
<!-- Generator: Adobe Illustrator 19.2.1, SVG Export Plug-In . SVG Version: 6.00 Build 0)  -->

<svg
   xmlns:dc="http://purl.org/dc/elements/1.1/"
   xmlns:cc="http://creativecommons.org/ns#"
   xmlns:rdf="http://www.w3.org/1999/02/22-rdf-syntax-ns#"
   xmlns:svg="http://www.w3.org/2000/svg"
   xmlns="http://www.w3.org/2000/svg"
   xmlns:sodipodi="http://sodipodi.sourceforge.net/DTD/sodipodi-0.dtd"
   xmlns:inkscape="http://www.inkscape.org/namespaces/inkscape"
   version="1.1"
   id="Layer_1"
   x="0px"
   y="0px"
   viewBox="0 0 767.50195 768.03229"
   xml:space="preserve"
   inkscape:version="0.91 r13725"
   sodipodi:docname="logo.svg"
   width="767.50195"
   height="768.03229"><metadata
     id="metadata15"><rdf:RDF><cc:Work
         rdf:about=""><dc:format>image/svg+xml</dc:format><dc:type
           rdf:resource="http://purl.org/dc/dcmitype/StillImage" /><dc:title></dc:title></cc:Work></rdf:RDF></metadata><defs
     id="defs13" /><sodipodi:namedview
     pagecolor="#ffffff"
     bordercolor="#666666"
     borderopacity="1"
     objecttolerance="10"
     gridtolerance="10"
     guidetolerance="10"
     inkscape:pageopacity="0"
     inkscape:pageshadow="2"
     inkscape:window-width="1529"
     inkscape:window-height="862"
     id="namedview11"
     showgrid="false"
     fit-margin-top="0"
     fit-margin-left="0"
     fit-margin-right="0"
     fit-margin-bottom="0"
     inkscape:zoom="0.118"
     inkscape:cx="986.47586"
     inkscape:cy="962.00127"
     inkscape:window-x="0"
     inkscape:window-y="27"
     inkscape:window-maximized="0"
     inkscape:current-layer="Layer_1" /><style
     type="text/css"
     id="style3">
	.st0{fill:#8BC249;}
</style><g
     id="g5"
     transform="matrix(0.39973138,0,0,0.39973138,-15.568687,-16.241178)"><path
       class="st0"
       d="m 1333.2,1625.9 c 76,92.8 175.1,118.8 288.4,106.2 -284.4,251.4 -766.3,329.8 -1158,65.8 C 56.1,1523.4 -76.1,993 145.8,562.7 372.1,123.6 877.2,-62.1 1321.2,96.7 c 230.4,82.4 404.9,233.1 522.2,447.7 102.2,186.8 134.4,387 105.4,597.5 -3.3,-11.2 -6.4,-22.6 -10.1,-33.7 -23.8,-72.6 -61,-137.1 -116.2,-190.4 -52.7,-50.9 -114.9,-83.6 -187.2,-96.5 -27,-4.8 -54.2,-6.9 -81.5,-5.1 -73.4,4.9 -138.7,30.2 -194.5,78.7 -4.6,4 -9,8.4 -13.4,12.8 -4.2,4.2 -8.3,8.7 -13,13.7 0,-2.6 0,-4.5 0,-6.5 0,-229.5 0,-459 0,-688.5 0,-1.8 0.4,-3.8 -0.1,-5.5 -0.5,-1.5 -2,-3 -3.4,-3.7 -1.4,-0.6 -3.3,-0.2 -4.9,-0.2 -76.7,0 -153.3,0 -230,0 -1.2,0 -2.3,0.1 -3.5,0 -3.5,-0.2 -5.4,1.1 -5,4.9 0.1,1.2 0,2.3 0,3.5 0,491.3 0,982.6 0,1474 0,8.2 0,8.3 8.2,8.3 77,0 154,0 231,0 7.8,0 7.8,0 7.8,-7.6 0,-22.3 0,-44.7 0,-67 -0.2,-2 0,-4 0.2,-7.2 z m -311.4,-499 c 0,-2.1 0,-4.1 0,-6.1 0,-57.2 -0.1,-114.3 0.2,-171.5 0,-6.6 -1.9,-10.5 -7.4,-14.2 C 931.5,880 840.7,853 740.7,858.6 c -24.5,1.3 -48.7,4.3 -72.5,10 -131.4,31.1 -230.4,105.2 -294,224.7 -37.9,71.3 -52.9,148.2 -47.3,228.7 1.5,21.3 3.9,42.8 8,63.7 18.7,94.7 63.8,174.6 136.7,238 77.6,67.5 169.1,100.4 271.1,105.7 17.7,0.9 35.6,-0.2 53.4,-0.8 24.3,-0.9 48.3,-4.9 71.9,-10.6 55.6,-13.3 106.2,-37.6 153.7,-68.9 4.3,-2.8 5.9,-5.8 5.9,-10.9 -0.2,-58 -0.1,-116 -0.1,-174 0,-1.3 0.2,-2.7 -0.1,-4 -0.3,-1.3 -1,-3.4 -1.9,-3.6 -1.3,-0.3 -3.1,0.6 -4.3,1.4 -1.1,0.7 -1.7,2 -2.6,3 -14.3,16 -27.8,32.8 -43.1,47.9 -52.5,51.7 -115.4,81.9 -189.3,87.9 -27.7,2.2 -55.1,1.9 -82.5,-3 -68.8,-12.4 -124.5,-46.5 -167.2,-101.6 -40.1,-51.7 -60.3,-111.1 -64.4,-175.9 -1.4,-21.6 -0.3,-43.7 2,-65.3 3.8,-34.8 13.7,-68.2 29.8,-99.5 49.9,-97.1 128.7,-152.3 237.9,-161.7 29.7,-2.6 59.5,0.1 88.7,7.2 51.6,12.6 96.2,38.1 134.5,74.3 17.3,16.3 32.6,34.7 48.7,52.2 2.1,2.4 3.6,5.4 8.1,3.4 z"
       id="path7"
       inkscape:connector-curvature="0"
       style="fill:#8bc249" /><path
       class="st0"
       d="m 1308.3,1281 c 1.3,-66.6 18,-121.4 54.5,-169.5 27.9,-36.7 63.6,-62.6 109.3,-72.2 58.4,-12.3 111.1,0.8 156.5,39.7 44.4,38.1 68.7,87.8 80.1,144.4 3.9,19.5 6,39.2 4.9,59 -4,73.6 -28.8,138.1 -84.5,188.4 -27.2,24.6 -59.3,39.5 -95.7,43.6 -62.6,7 -115,-14 -157.3,-60.1 -34.7,-37.7 -54.6,-82.8 -63.3,-133 -2.6,-15.3 -3.5,-31.1 -4.5,-40.3 z"
       id="path9"
       inkscape:connector-curvature="0"
       style="fill:#8bc249" /></g></svg>